<svg width="25" height="25" viewBox="0 0 25 25" fill="none" xmlns="http://www.w3.org/2000/svg">
<path d="M12.5984 2.17236C7.08445 2.17236 2.59845 6.65836 2.59845 12.1724C2.59845 17.6864 7.08445 22.1724 12.5984 22.1724C18.1124 22.1724 22.5984 17.6864 22.5984 12.1724C22.5984 6.65836 18.1124 2.17236 12.5984 2.17236ZM10.5995 16.5854L7.5939 13.5863C7.20315 13.1964 7.20236 12.5636 7.59214 12.1727C7.98216 11.7815 8.61546 11.7808 9.00638 12.1711L10.5974 13.7594L15.1845 9.17236C15.5749 8.7819 16.208 8.7819 16.5984 9.17236C16.9889 9.56283 16.9889 10.1959 16.5984 10.5864L10.5995 16.5854Z" fill="#2FAB73"/>
</svg>
