<svg width="25" height="24" viewBox="0 0 25 24" fill="none" xmlns="http://www.w3.org/2000/svg">
<path d="M10.555 16.7299C10.4237 16.7302 10.2937 16.7045 10.1723 16.6544C10.051 16.6043 9.94078 16.5307 9.84796 16.4379L5.60596 12.1949C5.51038 12.1027 5.43413 11.9924 5.38163 11.8705C5.32914 11.7485 5.30146 11.6173 5.30021 11.4845C5.29897 11.3517 5.32418 11.22 5.37437 11.0971C5.42457 10.9742 5.49874 10.8625 5.59256 10.7685C5.68639 10.6746 5.79799 10.6002 5.92085 10.5499C6.04371 10.4995 6.17537 10.4741 6.30815 10.4752C6.44092 10.4762 6.57216 10.5037 6.6942 10.556C6.81624 10.6083 6.92664 10.6845 7.01896 10.7799L10.554 14.3149L16.919 7.95189C17.1065 7.76425 17.3608 7.65879 17.6261 7.65869C17.8914 7.6586 18.1458 7.76389 18.3335 7.95139C18.5211 8.1389 18.6266 8.39327 18.6267 8.65854C18.6268 8.92381 18.5215 9.17825 18.334 9.36589L11.262 16.4379C11.1691 16.5307 11.0589 16.6043 10.9376 16.6544C10.8162 16.7045 10.6862 16.7302 10.555 16.7299Z" fill="#2FAB73"/>
</svg>
